<svg version="1.1" id="Layer_1" xmlns="http://www.w3.org/2000/svg" xmlns:xlink="http://www.w3.org/1999/xlink" x="0px" y="0px"
	 width="100%" viewBox="0 0 1200 1204" enable-background="new 0 0 1200 1204" xml:space="preserve">
<path fill="#000000" opacity="1.000000" stroke="none" 
	d="
M585.007446,1124.000732 
	C568.872498,1115.568115 553.096985,1107.213989 537.373596,1098.762817 
	C510.304016,1084.213257 483.276825,1069.584839 456.212708,1055.025269 
	C438.515594,1045.504761 420.776001,1036.063354 403.070923,1026.557739 
	C380.407745,1014.389893 357.765137,1002.183838 335.104462,990.011414 
	C317.686768,980.655212 300.253174,971.328674 282.829529,961.983643 
	C255.486282,947.318481 228.128113,932.680969 200.810638,917.967957 
	C185.948395,909.963379 171.154739,901.831482 156.336441,893.745544 
	C154.081436,892.515076 151.424561,891.632629 149.743683,889.845886 
	C147.996445,887.988647 146.163635,885.233887 146.153870,882.864319 
	C145.950027,833.367065 145.938965,783.868652 146.066162,734.370972 
	C146.085144,726.979248 146.988312,719.589783 147.563889,710.980835 
	C153.613251,713.746094 159.482086,716.171448 165.112534,719.061279 
	C174.125061,723.687073 182.972610,728.633667 191.901978,733.422058 
	C220.240173,748.618347 248.583252,763.805603 276.925781,778.993835 
	C294.495331,788.408997 312.079346,797.797302 329.635590,807.237366 
	C356.114777,821.475159 382.573395,835.751038 409.044586,850.003723 
	C424.037903,858.076477 439.038879,866.135010 454.814331,874.618225 
	C455.251404,870.210754 455.943848,866.436951 455.951111,862.661804 
	C456.029541,821.996887 455.889191,781.331421 456.023987,740.666748 
	C456.273468,665.416931 456.645996,590.167358 457.039825,514.918091 
	C457.070801,508.997650 457.526031,503.066040 458.115509,497.172729 
	C458.238708,495.941284 459.588806,494.419586 460.777130,493.770813 
	C474.318054,486.377655 487.964478,479.178162 501.529999,471.829559 
	C529.666077,456.587982 557.749390,441.248901 585.895935,426.026733 
	C601.452942,417.613220 617.094360,409.355408 632.697510,401.027039 
	C660.205383,386.344360 687.737976,371.707581 715.211914,356.961670 
	C732.360840,347.757446 749.407349,338.362579 766.524536,329.098969 
	C794.942688,313.719482 823.359192,298.336792 851.820190,283.036835 
	C864.423828,276.261475 877.133484,269.683319 889.796692,263.018829 
	C895.913147,259.799774 901.913940,256.318054 908.218567,253.522491 
	C910.358215,252.573730 913.738220,252.456009 915.757324,253.497711 
	C944.199646,268.171631 972.578125,282.973999 1000.815857,298.038147 
	C1017.825745,307.112549 1034.564575,316.695221 1051.426514,326.047089 
	C1052.158203,326.452850 1052.903198,326.834778 1054.547363,327.709656 
	C1044.887939,333.077576 1036.570190,337.790100 1028.170288,342.351471 
	C999.487244,357.927002 970.809448,373.512726 942.061340,388.967529 
	C925.640564,397.795227 909.040833,406.289703 892.604248,415.088470 
	C865.385864,429.658875 838.235535,444.356415 811.053833,458.995300 
	C794.067627,468.143341 777.077759,477.284607 760.087158,486.424469 
	C732.475769,501.277679 704.867126,516.136047 677.248108,530.975037 
	C660.256897,540.103943 643.237244,549.179871 626.253662,558.322815 
	C619.744385,561.827026 613.146912,565.210571 606.918945,569.167542 
	C605.042664,570.359619 604.219727,573.267517 603.041565,575.457886 
	C602.763428,575.974976 603.001099,576.769043 602.999878,577.435669 
	C602.666687,756.681213 602.333069,935.926697 602.001221,1115.172241 
	C601.991577,1120.375732 602.000000,1125.579224 602.000000,1130.782715 
	C601.425293,1131.034790 600.850586,1131.286743 600.275879,1131.538696 
	C595.314026,1129.037720 590.352173,1126.536621 585.007446,1124.000732 
z"/>
<path fill="#000000" opacity="1.000000" stroke="none" 
	d="
M146.000000,382.000000 
	C146.000000,365.669067 146.053787,349.837799 145.951401,334.007507 
	C145.932526,331.088654 146.653061,329.279236 149.445724,327.761749 
	C163.992905,319.857086 178.330612,311.567383 192.866074,303.640594 
	C221.517120,288.015991 250.217377,272.480743 278.962311,257.029480 
	C295.382202,248.203293 311.975403,239.699768 328.410522,230.901398 
	C355.625275,216.332230 382.771057,201.634308 409.954285,187.006180 
	C426.796112,177.943085 443.659149,168.919434 460.502350,159.858948 
	C487.663849,145.247986 514.813416,130.614944 541.974731,116.003601 
	C558.818298,106.942596 576.098022,98.591248 592.346069,88.566544 
	C600.478333,83.549149 605.896545,86.265762 612.611023,89.979713 
	C624.570312,96.594727 636.908020,102.521950 648.929199,109.029228 
	C674.518188,122.881012 700.008240,136.915497 725.532837,150.886169 
	C731.136536,153.953323 736.715027,157.066544 743.491333,160.814636 
	C737.797424,164.248459 733.306702,167.232178 728.574463,169.764664 
	C702.779663,183.568649 676.913330,197.238754 651.095947,211.000717 
	C633.650330,220.300125 616.243347,229.672104 598.821960,239.016922 
	C571.482239,253.681931 544.127625,268.319000 516.813171,283.030914 
	C500.248596,291.952759 483.787415,301.066833 467.209625,309.963867 
	C439.738129,324.707428 412.194458,339.316437 384.712646,354.040924 
	C371.812042,360.952972 358.972504,367.979431 346.127411,374.994507 
	C329.058258,384.316559 311.997894,393.655151 294.988678,403.085632 
	C294.067444,403.596405 293.169189,404.978333 293.080811,406.024078 
	C292.581787,411.927704 292.054352,417.852051 292.044250,423.770203 
	C291.964600,470.429657 292.047607,517.089417 291.938507,563.748779 
	C291.925201,569.445190 291.070709,575.139709 290.581757,581.132874 
	C289.562958,580.824890 288.601807,580.688904 287.789764,580.266357 
	C264.674042,568.237061 241.549591,556.224060 218.479294,544.108032 
	C205.250137,537.160400 192.049896,530.152283 178.955643,522.954956 
	C169.654175,517.842285 160.668060,512.149658 151.307205,507.154358 
	C147.098541,504.908386 145.962723,501.805176 145.968796,497.480530 
	C146.022522,459.153748 146.000000,420.826843 146.000000,382.000000 
z"/>
<path fill="#000000" opacity="1.000000" stroke="none" 
	d="
M1036.641602,720.758789 
	C1015.387024,732.260742 994.464722,743.576538 973.510925,754.833801 
	C962.180725,760.920776 950.790833,766.896606 939.439026,772.943787 
	C931.924133,776.947144 924.327271,780.815857 917.007690,785.151123 
	C915.466187,786.064148 914.141479,788.741943 914.121887,790.621216 
	C913.633362,837.528748 913.319458,884.438293 913.010376,931.347595 
	C912.939697,942.078857 913.000000,952.811035 913.000000,963.542786 
	C912.450684,963.854431 911.901367,964.166016 911.352051,964.477600 
	C906.292664,961.989990 901.182373,959.600037 896.184204,956.994995 
	C885.062866,951.198303 873.981445,945.324219 862.912598,939.427612 
	C837.657959,925.974060 812.387024,912.550537 787.190613,898.988647 
	C774.594666,892.208923 762.183960,885.085632 749.608154,878.267761 
	C746.387573,876.521790 744.918213,874.400391 744.925476,870.562317 
	C745.033447,813.574646 744.960632,756.586731 745.044434,699.598999 
	C745.056335,691.514343 745.564514,683.423767 746.108582,675.353821 
	C746.192017,674.116333 747.460632,672.529663 748.618164,671.860413 
	C759.330444,665.667358 770.061584,659.498413 780.934326,653.593262 
	C807.213196,639.320923 833.666748,625.366333 859.818237,610.866028 
	C865.159546,607.904358 869.036987,609.769653 873.288696,612.054016 
	C885.188049,618.447021 896.998474,625.005737 908.895691,631.402832 
	C937.212097,646.628418 965.608643,661.705566 993.874451,677.024353 
	C1012.384216,687.055847 1030.726685,697.396240 1049.127441,707.628174 
	C1050.502808,708.393005 1051.744141,709.399231 1053.616211,710.683044 
	C1047.734741,714.166748 1042.347778,717.357544 1036.641602,720.758789 
z"/>
</svg>